<svg version="1.1" id="Layer_1" xmlns="http://www.w3.org/2000/svg" xmlns:xlink="http://www.w3.org/1999/xlink" x="0px" y="0px"
	 width="100%" viewBox="0 0 323 136" enable-background="new 0 0 323 136" xml:space="preserve">
<path fill="#FFFFFF" opacity="1.000000" stroke="none" 
	d="
M212.000000,137.000000 
	C141.333344,137.000000 71.166687,137.000000 1.000019,137.000000 
	C1.000013,91.666679 1.000013,46.333363 1.000006,1.000031 
	C108.666634,1.000021 216.333267,1.000021 323.999939,1.000010 
	C323.999939,46.333302 323.999939,91.666603 323.999969,136.999954 
	C286.833344,137.000000 249.666672,137.000000 212.000000,137.000000 
M77.362633,34.981647 
	C65.306015,34.981647 53.249405,34.981647 41.192791,34.981647 
	C40.888996,35.343014 40.585201,35.704376 40.281406,36.065742 
	C42.236107,37.598492 44.594090,38.820690 46.062683,40.727776 
	C49.252068,44.869457 53.292980,46.023232 58.249962,45.781063 
	C62.898647,45.553951 67.571266,45.744091 72.231270,45.845863 
	C75.569321,45.918762 77.523521,47.698914 77.779411,51.048435 
	C78.026443,54.281979 76.608879,56.659027 73.373833,57.340813 
	C70.965393,57.848396 68.439819,57.935844 65.963821,57.961678 
	C58.713795,58.037319 51.462471,57.988586 43.988602,57.988586 
	C43.988602,64.370361 43.988602,70.179260 43.988602,75.988159 
	C43.988602,81.910133 43.988602,87.832108 43.988602,93.249054 
	C56.142906,93.249054 67.641251,93.851448 79.042786,93.059685 
	C88.272369,92.418755 94.339516,86.065575 94.264877,78.158875 
	C94.233070,74.789459 92.868362,70.844070 90.764259,68.252495 
	C88.760994,65.785110 85.005501,64.740356 82.092232,63.110348 
	C87.104218,61.097492 91.464691,58.111996 92.090256,51.771881 
	C92.983032,42.723579 88.455826,37.246250 77.362633,34.981647 
M254.721588,92.372124 
	C259.689026,89.451790 263.087280,85.432045 263.998535,79.222839 
	C258.919922,79.369087 254.251129,77.627960 249.977844,82.794151 
	C248.126083,85.032814 242.130920,85.207863 238.550034,84.275681 
	C234.840500,83.309998 233.241959,79.233818 234.186768,74.361252 
	C244.345200,74.361252 254.394211,74.361252 264.638336,74.361252 
	C264.355042,67.000694 263.454041,60.478432 258.695984,55.196781 
	C252.927856,48.793903 242.346054,46.668884 233.788956,50.097050 
	C225.222733,53.528873 220.291641,62.061558 220.450760,73.177299 
	C220.598999,83.532677 225.317780,91.038132 233.730591,93.998352 
	C240.651978,96.433807 247.467422,95.978516 254.721588,92.372124 
M192.805252,60.241314 
	C200.000992,57.901382 202.947937,59.879482 203.024780,67.314644 
	C203.115372,76.080894 203.046036,84.848808 203.046036,93.704758 
	C207.607147,93.704758 211.529938,93.704758 215.936447,93.704758 
	C215.936447,83.360146 216.065781,73.242523 215.901733,63.129665 
	C215.721130,51.995426 208.336594,46.540230 197.512115,49.487125 
	C195.032730,50.162125 192.743774,51.536663 191.244644,52.200634 
	C186.671707,48.203377 181.821609,50.859253 177.381348,49.899555 
	C177.381348,64.863052 177.381348,79.245056 177.381348,93.571297 
	C181.764389,93.571297 185.814209,93.571297 190.009125,93.571297 
	C190.009125,85.044365 189.832016,76.879723 190.109940,68.730598 
	C190.201111,66.057404 191.472885,63.424465 192.805252,60.241314 
M161.616531,49.990864 
	C159.996338,49.990864 158.376144,49.990864 156.283508,49.990864 
	C156.283508,59.078842 156.312180,67.701393 156.273392,76.323639 
	C156.247665,82.046974 154.077820,84.607224 149.371857,84.645172 
	C144.824417,84.681839 143.029434,82.435936 143.014877,76.575394 
	C142.993088,67.806633 143.009201,59.037785 143.009201,50.332397 
	C138.387817,50.332397 134.331482,50.332397 130.090576,50.332397 
	C130.090576,61.150524 129.878769,71.633995 130.155426,82.104561 
	C130.390335,90.995522 135.396530,95.604141 144.325607,94.936760 
	C148.279633,94.641228 152.120239,92.828308 155.569504,91.832100 
	C159.488708,96.032112 164.469376,92.937607 168.841034,94.054619 
	C168.841034,78.985367 168.841034,64.603233 168.841034,49.990864 
	C166.525909,49.990864 164.545624,49.990864 161.616531,49.990864 
M272.782196,34.464909 
	C269.549408,33.926048 268.977356,35.521870 268.998138,38.442219 
	C269.123566,56.080547 269.057678,73.720207 269.078888,91.359390 
	C269.079834,92.134369 269.305969,92.909081 269.409180,93.568451 
	C273.773865,93.568451 277.822693,93.568451 281.789673,93.568451 
	C281.789673,73.774178 281.789673,54.352245 281.789673,34.464806 
	C278.948730,34.464806 276.320496,34.464806 272.782196,34.464909 
M103.578758,49.923790 
	C101.394516,49.723877 99.553680,49.833965 99.961143,52.904030 
	C100.156326,54.374577 99.994156,55.892529 99.994148,57.389008 
	C99.994095,69.466599 99.994118,81.544189 99.994118,93.575813 
	C104.617195,93.575813 108.659332,93.575813 112.937057,93.575813 
	C112.937057,87.079544 112.937050,80.942802 112.937057,74.806053 
	C112.937057,63.356365 112.937531,63.358540 124.039917,60.962433 
	C124.320068,60.901974 124.560394,60.657051 124.719536,60.559383 
	C124.719536,56.928486 124.719536,53.389004 124.719536,49.023155 
	C120.450607,50.516815 116.759300,51.808369 113.026115,53.114574 
	C112.150803,47.553867 107.549721,50.713329 103.578758,49.923790 
z"/>
<path fill="#383838" opacity="1.000000" stroke="none" 
	d="
M77.787628,35.022194 
	C88.455826,37.246250 92.983032,42.723579 92.090256,51.771881 
	C91.464691,58.111996 87.104218,61.097492 82.092232,63.110348 
	C85.005501,64.740356 88.760994,65.785110 90.764259,68.252495 
	C92.868362,70.844070 94.233070,74.789459 94.264877,78.158875 
	C94.339516,86.065575 88.272369,92.418755 79.042786,93.059685 
	C67.641251,93.851448 56.142906,93.249054 43.988602,93.249054 
	C43.988602,87.832108 43.988602,81.910133 43.988602,75.988159 
	C43.988602,70.179260 43.988602,64.370361 43.988602,57.988586 
	C51.462471,57.988586 58.713795,58.037319 65.963821,57.961678 
	C68.439819,57.935844 70.965393,57.848396 73.373833,57.340813 
	C76.608879,56.659027 78.026443,54.281979 77.779411,51.048435 
	C77.523521,47.698914 75.569321,45.918762 72.231270,45.845863 
	C67.571266,45.744091 62.898647,45.553951 58.249962,45.781063 
	C53.292980,46.023232 49.252068,44.869457 46.062683,40.727776 
	C44.594090,38.820690 42.236107,37.598492 40.281406,36.065742 
	C40.585201,35.704376 40.888996,35.343014 41.192791,34.981647 
	C53.249405,34.981647 65.306015,34.981647 77.787628,35.022194 
M58.006424,78.409439 
	C58.072990,79.856148 58.139561,81.302856 58.230885,83.287659 
	C63.817955,83.017067 69.117722,83.014793 74.350197,82.420258 
	C78.025299,82.002670 79.698578,79.245491 79.518669,75.628494 
	C79.331017,71.855820 77.499214,69.186974 73.473717,69.029617 
	C68.402695,68.831398 63.318035,68.981819 58.006413,68.981819 
	C58.006413,72.148148 58.006413,74.793358 58.006424,78.409439 
z"/>
<path fill="#3A3A3A" opacity="1.000000" stroke="none" 
	d="
M254.402924,92.574303 
	C247.467422,95.978516 240.651978,96.433807 233.730591,93.998352 
	C225.317780,91.038132 220.598999,83.532677 220.450760,73.177299 
	C220.291641,62.061558 225.222733,53.528873 233.788956,50.097050 
	C242.346054,46.668884 252.927856,48.793903 258.695984,55.196781 
	C263.454041,60.478432 264.355042,67.000694 264.638336,74.361252 
	C254.394211,74.361252 244.345200,74.361252 234.186768,74.361252 
	C233.241959,79.233818 234.840500,83.309998 238.550034,84.275681 
	C242.130920,85.207863 248.126083,85.032814 249.977844,82.794151 
	C254.251129,77.627960 258.919922,79.369087 263.998535,79.222839 
	C263.087280,85.432045 259.689026,89.451790 254.402924,92.574303 
M243.362366,57.906796 
	C237.027481,58.384674 234.335403,60.937454 234.467667,66.137642 
	C239.987595,66.137642 245.494354,66.137642 251.118378,66.137642 
	C250.825455,61.254810 248.461060,58.761097 243.362366,57.906796 
z"/>
<path fill="#373737" opacity="1.000000" stroke="none" 
	d="
M192.505005,60.507217 
	C191.472885,63.424465 190.201111,66.057404 190.109940,68.730598 
	C189.832016,76.879723 190.009125,85.044365 190.009125,93.571297 
	C185.814209,93.571297 181.764389,93.571297 177.381348,93.571297 
	C177.381348,79.245056 177.381348,64.863052 177.381348,49.899555 
	C181.821609,50.859253 186.671707,48.203377 191.244644,52.200634 
	C192.743774,51.536663 195.032730,50.162125 197.512115,49.487125 
	C208.336594,46.540230 215.721130,51.995426 215.901733,63.129665 
	C216.065781,73.242523 215.936447,83.360146 215.936447,93.704758 
	C211.529938,93.704758 207.607147,93.704758 203.046036,93.704758 
	C203.046036,84.848808 203.115372,76.080894 203.024780,67.314644 
	C202.947937,59.879482 200.000992,57.901382 192.505005,60.507217 
z"/>
<path fill="#373737" opacity="1.000000" stroke="none" 
	d="
M162.090942,49.990864 
	C164.545624,49.990864 166.525909,49.990864 168.841034,49.990864 
	C168.841034,64.603233 168.841034,78.985367 168.841034,94.054619 
	C164.469376,92.937607 159.488708,96.032112 155.569504,91.832100 
	C152.120239,92.828308 148.279633,94.641228 144.325607,94.936760 
	C135.396530,95.604141 130.390335,90.995522 130.155426,82.104561 
	C129.878769,71.633995 130.090576,61.150524 130.090576,50.332397 
	C134.331482,50.332397 138.387817,50.332397 143.009201,50.332397 
	C143.009201,59.037785 142.993088,67.806633 143.014877,76.575394 
	C143.029434,82.435936 144.824417,84.681839 149.371857,84.645172 
	C154.077820,84.607224 156.247665,82.046974 156.273392,76.323639 
	C156.312180,67.701393 156.283508,59.078842 156.283508,49.990864 
	C158.376144,49.990864 159.996338,49.990864 162.090942,49.990864 
z"/>
<path fill="#373737" opacity="1.000000" stroke="none" 
	d="
M273.237244,34.464859 
	C276.320496,34.464806 278.948730,34.464806 281.789673,34.464806 
	C281.789673,54.352245 281.789673,73.774178 281.789673,93.568451 
	C277.822693,93.568451 273.773865,93.568451 269.409180,93.568451 
	C269.305969,92.909081 269.079834,92.134369 269.078888,91.359390 
	C269.057678,73.720207 269.123566,56.080547 268.998138,38.442219 
	C268.977356,35.521870 269.549408,33.926048 273.237244,34.464859 
z"/>
<path fill="#363636" opacity="1.000000" stroke="none" 
	d="
M104.051788,49.923721 
	C107.549721,50.713329 112.150803,47.553867 113.026115,53.114574 
	C116.759300,51.808369 120.450607,50.516815 124.719536,49.023155 
	C124.719536,53.389004 124.719536,56.928486 124.719536,60.559383 
	C124.560394,60.657051 124.320068,60.901974 124.039917,60.962433 
	C112.937531,63.358540 112.937057,63.356365 112.937057,74.806053 
	C112.937050,80.942802 112.937057,87.079544 112.937057,93.575813 
	C108.659332,93.575813 104.617195,93.575813 99.994118,93.575813 
	C99.994118,81.544189 99.994095,69.466599 99.994148,57.389008 
	C99.994156,55.892529 100.156326,54.374577 99.961143,52.904030 
	C99.553680,49.833965 101.394516,49.723877 104.051788,49.923721 
z"/>
<path fill="#FDFDFD" opacity="1.000000" stroke="none" 
	d="
M58.006416,77.924004 
	C58.006413,74.793358 58.006413,72.148148 58.006413,68.981819 
	C63.318035,68.981819 68.402695,68.831398 73.473717,69.029617 
	C77.499214,69.186974 79.331017,71.855820 79.518669,75.628494 
	C79.698578,79.245491 78.025299,82.002670 74.350197,82.420258 
	C69.117722,83.014793 63.817955,83.017067 58.230885,83.287659 
	C58.139561,81.302856 58.072990,79.856148 58.006416,77.924004 
z"/>
<path fill="#EDEDED" opacity="1.000000" stroke="none" 
	d="
M243.767792,57.932133 
	C248.461060,58.761097 250.825455,61.254810 251.118378,66.137642 
	C245.494354,66.137642 239.987595,66.137642 234.467667,66.137642 
	C234.335403,60.937454 237.027481,58.384674 243.767792,57.932133 
z"/>
</svg>